<?xml version="1.0" encoding="UTF-8"?><svg id="Ebene_1" xmlns="http://www.w3.org/2000/svg" viewBox="0 0 571 93"><defs><style>.cls-1{fill:#fff;}</style></defs><rect x="4.54" y="5.35" width="336.04" height="80.82"/><g><path class="cls-1" d="M34.08,39.04h22.25V16.16h15.41v59.28h-15.41v-24.45h-22.25v24.45h-15.41V16.16h15.41v22.88Z"/><path class="cls-1" d="M98.47,46.98l-21.62-30.82h18.4l11.01,16.19,10.93-16.19h18.4l-21.7,30.82v28.46h-15.41v-28.46Z"/><path class="cls-1" d="M141,16.16h22.96c5.45,0,9.59,1.31,12.42,3.93,2.83,2.62,4.25,6.4,4.25,11.32,0,2.99-.54,5.46-1.61,7.43-1.08,1.97-2.71,3.63-4.91,4.99,2.2,.42,4.07,1.06,5.62,1.93,1.55,.87,2.8,1.93,3.77,3.18s1.66,2.67,2.08,4.25c.42,1.57,.63,3.25,.63,5.03,0,2.78-.48,5.24-1.45,7.39-.97,2.15-2.33,3.96-4.09,5.42-1.76,1.47-3.89,2.57-6.41,3.3s-5.35,1.1-8.49,1.1h-24.76V16.16Zm15.41,23.27h2.83c4.82,0,7.23-1.91,7.23-5.74s-2.41-5.74-7.23-5.74h-2.83v11.48Zm0,24.06h3.38c3.88,0,6.66-.5,8.33-1.49,1.68-.99,2.52-2.59,2.52-4.8s-.84-3.8-2.52-4.8c-1.68-.99-4.45-1.49-8.33-1.49h-3.38v12.58Z"/><path class="cls-1" d="M244.7,75.44h-19.18l-14.7-22.8v22.8h-15.41V16.16h23.98c3.3,0,6.18,.48,8.65,1.45,2.46,.97,4.49,2.29,6.09,3.97,1.6,1.68,2.8,3.62,3.62,5.82,.81,2.2,1.22,4.56,1.22,7.08,0,4.51-1.09,8.16-3.26,10.97-2.18,2.8-5.38,4.7-9.63,5.7l18.63,24.29Zm-33.88-32.78h2.91c3.04,0,5.37-.63,7-1.89,1.62-1.26,2.44-3.07,2.44-5.42s-.81-4.17-2.44-5.42c-1.63-1.26-3.96-1.89-7-1.89h-2.91v14.62Z"/><path class="cls-1" d="M266.55,16.16v59.28h-15.41V16.16h15.41Z"/><path class="cls-1" d="M278.97,16.16h22.8c4.04,0,7.82,.81,11.36,2.44,3.54,1.63,6.63,3.79,9.28,6.49,2.65,2.7,4.73,5.84,6.25,9.43,1.52,3.59,2.28,7.35,2.28,11.28s-.75,7.61-2.24,11.2c-1.49,3.59-3.57,6.75-6.21,9.47-2.65,2.73-5.74,4.9-9.28,6.52-3.54,1.63-7.35,2.44-11.44,2.44h-22.8V16.16Zm15.41,46.23h3.54c2.67,0,5.06-.42,7.15-1.26,2.1-.84,3.86-1.99,5.31-3.46,1.44-1.47,2.54-3.21,3.3-5.23,.76-2.02,1.14-4.23,1.14-6.64s-.39-4.56-1.18-6.6-1.9-3.8-3.34-5.27c-1.44-1.47-3.21-2.62-5.31-3.46-2.1-.84-4.45-1.26-7.08-1.26h-3.54V62.39Z"/><path class="cls-1" d="M353.19,16.16h22.8c4.04,0,7.82,.81,11.36,2.44,3.54,1.63,6.63,3.79,9.28,6.49,2.65,2.7,4.73,5.84,6.25,9.43,1.52,3.59,2.28,7.35,2.28,11.28s-.75,7.61-2.24,11.2c-1.49,3.59-3.57,6.75-6.21,9.47-2.65,2.73-5.74,4.9-9.28,6.52-3.54,1.63-7.35,2.44-11.44,2.44h-22.8V16.16Zm15.41,46.23h3.54c2.67,0,5.06-.42,7.15-1.26,2.1-.84,3.86-1.99,5.31-3.46,1.44-1.47,2.54-3.21,3.3-5.23,.76-2.02,1.14-4.23,1.14-6.64s-.39-4.56-1.18-6.6-1.9-3.8-3.34-5.27c-1.44-1.47-3.21-2.62-5.31-3.46-2.1-.84-4.45-1.26-7.08-1.26h-3.54V62.39Z"/><path class="cls-1" d="M448.7,29.21h-18.32v9.91h17.3v13.05h-17.3v10.22h18.32v13.05h-33.73V16.16h33.73v13.05Z"/><path class="cls-1" d="M492.34,31.33c-1.68-1.36-3.35-2.37-5.03-3.03-1.68-.65-3.3-.98-4.87-.98-1.99,0-3.62,.47-4.87,1.42s-1.89,2.18-1.89,3.7c0,1.05,.31,1.91,.94,2.59,.63,.68,1.45,1.27,2.48,1.77,1.02,.5,2.17,.93,3.46,1.3,1.28,.37,2.55,.76,3.81,1.18,5.03,1.68,8.71,3.92,11.05,6.72,2.33,2.8,3.5,6.46,3.5,10.97,0,3.04-.51,5.79-1.53,8.25-1.02,2.46-2.52,4.57-4.48,6.33-1.97,1.76-4.38,3.12-7.23,4.09-2.86,.97-6.09,1.45-9.71,1.45-7.5,0-14.44-2.23-20.83-6.68l6.6-12.42c2.31,2.04,4.59,3.56,6.84,4.56,2.25,1,4.48,1.49,6.68,1.49,2.52,0,4.39-.58,5.62-1.73,1.23-1.15,1.85-2.46,1.85-3.93,0-.89-.16-1.66-.47-2.32-.32-.65-.84-1.26-1.57-1.81-.73-.55-1.69-1.06-2.87-1.53-1.18-.47-2.61-.99-4.29-1.57-1.99-.63-3.94-1.32-5.86-2.08-1.91-.76-3.62-1.77-5.11-3.03-1.49-1.26-2.7-2.84-3.62-4.76-.92-1.91-1.38-4.34-1.38-7.27s.48-5.59,1.45-7.98c.97-2.38,2.33-4.43,4.09-6.13,1.76-1.7,3.9-3.03,6.45-3.97,2.54-.94,5.39-1.42,8.53-1.42,2.93,0,6,.41,9.2,1.22,3.2,.81,6.26,2,9.2,3.58l-6.13,12.03Z"/><path class="cls-1" d="M525.98,40.61l18.79-24.45h19.03l-23.51,28.07,25.71,31.21h-19.97l-20.05-25.71v25.71h-15.41V16.16h15.41v24.45Z"/></g></svg>