<?xml version="1.0" encoding="UTF-8"?><svg id="Ebene_2" xmlns="http://www.w3.org/2000/svg" viewBox="0 0 170 317.5"><defs><style>.cls-1{fill:#ccc;}</style></defs><g id="Ebene_1-2"><g><g><path class="cls-1" d="M27.5,192.5c16.29,0,29.5-13.21,29.5-29.5s-13.21-29.5-29.5-29.5c-.17,0-.33,0-.5,.01v-17.01h58v93H27v-17.01c.17,0,.33,.01,.5,.01Z"/><circle class="cls-1" cx="27.5" cy="163" r="27.5"/></g><circle class="cls-1" cx="27.5" cy="78" r="27.5"/><circle class="cls-1" cx="142.5" cy="78" r="27.5"/><g><path class="cls-1" d="M142.5,192.5c-16.29,0-29.5-13.21-29.5-29.5,0-16.29,13.21-29.5,29.5-29.5,.17,0,.33,0,.5,.01v-17.01h-58v93h58v-17.01c-.17,0-.33,.01-.5,.01Z"/><circle class="cls-1" cx="142.5" cy="163" r="27.5"/></g><circle class="cls-1" cx="27.5" cy="243" r="27.5"/><circle class="cls-1" cx="142.5" cy="243" r="27.5"/><path class="cls-1" d="M142.5,213.5c.17,0,.33,0,.5,.01v-17.01H27v17.01c.17,0,.33-.01,.5-.01,16.29,0,29.5,13.21,29.5,29.5s-13.21,29.5-29.5,29.5c-.17,0-.33,0-.5-.01v17.01h28.01c.27-16.06,13.36-29,29.49-29s29.22,12.94,29.49,29h29.01v-17.01c-.17,0-.33,.01-.5,.01-16.29,0-29.5-13.21-29.5-29.5s13.21-29.5,29.5-29.5Z"/><path class="cls-1" d="M142.5,48.5c.17,0,.33,0,.5,.01V27.5h-28.5c0,16.29-13.21,29.5-29.5,29.5s-29.5-13.21-29.5-29.5H27v21.01c.17,0,.33-.01,.5-.01,16.29,0,29.5,13.21,29.5,29.5s-13.21,29.5-29.5,29.5c-.17,0-.33,0-.5-.01v18.01h116v-18.01c-.17,0-.33,.01-.5,.01-16.29,0-29.5-13.21-29.5-29.5s13.21-29.5,29.5-29.5Z"/><circle class="cls-1" cx="84.5" cy="290" r="27.5"/><circle class="cls-1" cx="85" cy="27.5" r="27.5"/></g></g></svg>